<?xml version="1.0" encoding="UTF-8" standalone="no"?>
<!-- Created with Inkscape (http://www.inkscape.org/) -->
<svg id="svg3842" xmlns:rdf="http://www.w3.org/1999/02/22-rdf-syntax-ns#" xmlns="http://www.w3.org/2000/svg" height="335" viewBox="0 0 214 335" width="214" version="1.1" xmlns:cc="http://creativecommons.org/ns#" xmlns:dc="http://purl.org/dc/elements/1.1/">
 <metadata id="metadata3848">
  <rdf:RDF>
   <cc:Work rdf:about="">
    <dc:format>image/svg+xml</dc:format>
    <dc:type rdf:resource="http://purl.org/dc/dcmitype/StillImage"/>
    <dc:title/>
   </cc:Work>
  </rdf:RDF>
 </metadata>
 <path id="path3854" d="m92.241 328.55c-1.7846-1.5016-4.576-6.2445-7.2099-12.25-8.988-20.5-14.367-29.88-28.538-49.8-6.2324-8.76-7.9972-16.516-7.964-35 0.02564-14.27 0.27823-16.649 2.3367-22 5.5408-14.405 4.0498-15.95-13.476-13.97-7.0581 0.79748-9.5908-0.16737-12.35-4.7049-1.0193-1.6761-2.9077-3.5728-4.1965-4.2148-1.9738-0.98329-2.3635-1.9819-2.4719-6.3344-0.12081-4.8515 0.13906-5.4301 4.2538-9.4714 17.126-16.82 18.126-18.549 16.18-27.97-0.663-3.21-1.702-5.84-2.309-5.84-1.794 0-6.843-5.91-12.806-15-3.069-4.68-7.179-10.27-9.135-12.43-3.954-4.38-4.061-4.66-2.355-6.37 2.0491-2.0491 6.2416-1.3362 12.899 2.1932 5.571 2.96 24.55 10.61 26.303 10.61 0.34378 0-0.07335-1.6875-0.92694-3.75-0.94286-2.2782-5.1262-7.0728-10.659-12.216-8.001-7.435-9.574-9.479-12.961-16.846-2.12-4.611-3.87-9.351-3.888-10.534-0.018-1.182-0.903-4.625-1.967-7.65-2.21-6.283-2.468-12.062-0.919-20.566 1.6058-8.8152 2.6552-8.5889 2.1314 0.45954-0.6879 11.883 1.0436 18.799 4.0764 16.282 1.2139-1.0074 1.4231-0.60303 1.3262 2.5643-0.08829 2.8873 0.26036 3.7333 1.5017 3.6437 0.90001-0.06495 1.5649 0.58552 1.5 1.4673-0.147 1.992 8.834 8.149 11.887 8.149 1.727 0 2.668-0.974 3.887-4.02 2.41-6.022 1.988-10.662-2.106-23.148-3.582-10.929-3.716-11.847-3.75-25.832-0.036-15.08 0.793-22 2.636-22 0.7272 0 0.92553 2.8588 0.60702 8.75-0.62321 11.527 0.61964 22.148 3.1786 27.164 2.2252 4.3618 6.6351 7.9654 7.935 6.4842 0.433-0.494 2.714-6.523 5.069-13.398 2.3544-6.875 4.9253-13.625 5.7129-15 1.308-2.2833 1.3816-1.8499 0.85 5-0.32015 4.125-0.82067 9.3-1.1123 11.5l-0.53017 4 6.2066-6.5 6.2066-6.5-2.8056 5c-1.5431 2.75-5.2175 8.125-8.1653 11.945-2.9479 3.8195-5.7784 8.5445-6.2901 10.5-7.5813 28.974-8.3995 41.845-3.401 53.498 2.4178 5.6365 3.5054 7.0838 5.7803 7.6923 1.5412 0.41218 3.5413 1.3972 4.4447 2.1889 3.086 2.7044 5.9913 2.9326 9.5257 0.74823 1.844-1.14 4.257-2.07 5.363-2.07 3.6088 0 4.3143-2.0978 2.7088-8.0553-3.684-13.663-6.083-40.94-3.602-40.94 0.4693 0 1.1373 3.3601 1.4844 7.4668 2.1235 25.121 9.6061 38.777 16.468 30.053 4.1582-5.2863 10.298-18.598 10.892-23.616 0.46577-3.9328 0.82456-4.7221 1.554-3.4187 1.248 2.23 0.19611 8.8476-2.8122 17.692-1.3394 3.9379-2.2483 7.3468-2.0199 7.5752 0.81426 0.81427 22.631-8.9858 28.617-12.855 4.583-2.9622 6.5532-4.9875 7.9459-8.1684 2.9659-6.7741 4.3428-16.037 3.7637-25.319-0.38255-6.1318-0.21185-8.401 0.61165-8.1311 1.4848 0.48676 3.503 10.399 3.8607 18.961 0.15488 3.7075 0.40043 6.745 0.54569 6.75 0.87645 0.03024 6.5357-7.2097 8.6681-11.089 2.1598-3.9293 2.6836-6.6938 3.6006-19 0.59-7.92 1.42-18.901 1.85-24.401l0.77392-10 1.7631 3.9331c1.5727 3.5084 3.409 22.873 3.5505 37.442 0.0317 3.2641 0.13868 3.3538 3.2553 2.7305 4.2047-0.84095 9.5676-6.1077 10.763-10.57 0.52-1.944 1.43-10.06 2.02-18.035 1.3901-18.766 1.8833-21.947 3.073-19.821 1.5406 2.7529 3.1978 21.931 2.5552 29.571-0.33535 3.9875-0.22057 7.25 0.25507 7.25 1.7578 0 2.893-2.6758 4.0301-9.5 1.6243-9.7481 2.083-11.104 3.1736-9.3821 1.2264 1.9363 1.1101 13.607-0.18186 18.26-1.21 4.319-1.67 4.823-14.94 16.122-5.17 4.4-13.97 12.275-19.56 17.5-12.09 11.307-22.85 19.221-34.71 25.531-4.79 2.549-8.71 4.719-8.71 4.839 0 0.11157 0.9 2.7635 2 5.8932 4.0727 11.588 1.7555 23.086-5.7257 28.412-2.1212 1.5102-5.1402 4.5485-6.7087 6.7516l-2.8519 4.0058 1.602 9.0355c1.9609 11.06 6.0104 25.328 9.0922 32.036 1.2634 2.75 4.1879 7.25 6.4988 10 8.9985 10.708 14.053 25.461 14.079 41.09 0.0287 17.656-5.2105 30.949-17.427 44.216-7.5482 8.1972-8.3024 9.6268-10.918 20.694-3.06 12.93-11.32 26.5-16.14 26.5-0.7406 0-2.657-1.1026-4.2586-2.4503zm11.089-211.21c1.1959-1.4649 3.8618-4.2873 5.9243-6.2719s3.75-3.941 3.75-4.3474c0-0.58171-15.348 8.3653-16.874 9.8363-0.20545 0.1981-0.10707 1.0546 0.21862 1.9033 0.92282 2.4048 4.5823 1.8175 6.9806-1.1203zm-59.358-26.408c-1.213-2.927-11.292-12.932-13.028-12.932-1.1098 0 0.50511 4.3728 3.2626 8.8345 2.43 3.9319 10.077 9.8146 10.624 8.173 0.20334-0.61003-0.18316-2.4439-0.8589-4.0753z" fill="#000"/>
</svg>
