<?xml version="1.0" encoding="UTF-8" standalone="no"?>
<!-- Created with Inkscape (http://www.inkscape.org/) -->
<svg id="svg3595" xmlns:rdf="http://www.w3.org/1999/02/22-rdf-syntax-ns#" xmlns="http://www.w3.org/2000/svg" height="335" viewBox="0 0 789 335" width="789" version="1.1" xmlns:cc="http://creativecommons.org/ns#" xmlns:dc="http://purl.org/dc/elements/1.1/">
 <metadata id="metadata3601">
  <rdf:RDF>
   <cc:Work rdf:about="">
    <dc:format>image/svg+xml</dc:format>
    <dc:type rdf:resource="http://purl.org/dc/dcmitype/StillImage"/>
    <dc:title/>
   </cc:Work>
  </rdf:RDF>
 </metadata>
 <path id="path3627" fill="#000" d="m92.842 329.11c-1.3966-1.0986-3.8035-4.8111-5.3487-8.25-7.9314-17.652-19.048-38.186-25.028-46.232-3.6707-4.9385-7.7656-11.363-9.0997-14.277-5.9493-12.995-6.7864-37.07-1.7922-51.54 3.363-9.7435 3.3214-12.454-0.21179-13.804-1.5125-0.57795-4.325-0.79641-6.25-0.48548-10.57 1.7074-12.141 1.7699-14.975 0.59632-1.6543-0.68522-3.9007-2.6906-4.992-4.4565-1.0914-1.7658-3.1362-3.7355-4.544-4.3769-2.419-1.1022-2.5222-1.4551-1.8772-6.4217 0.72855-5.6099 2.6801-8.8394 7.3588-12.177 4.7015-3.3543 12.069-12.234 13.101-15.791 0.52473-1.808 0.63473-5.3123 0.24445-7.7873s-0.63651-4.95-0.54718-5.5-1.2848-1.675-3.0535-2.5c-2.243-1.0462-5.6364-5.0358-11.216-13.187-4.4-6.4276-9.0125-12.757-10.25-14.064-2.9815-3.151-2.8649-5.5566 0.30788-6.3529 1.8825-0.47248 4.9849 0.54745 11.75 3.8629 9.8783 4.8412 24.465 10.302 25.297 9.4697 1.3748-1.3748-4.0769-9.678-8.6385-13.157-7.587-5.774-13.63-13.034-15.471-18.577-0.906-2.727-2.036-5.199-2.513-5.493-0.476-0.295-1.183-2.655-1.572-5.246-0.388-2.59-1.368-6.292-2.176-8.226-1.748-4.181-2.114-14.542-0.761-21.517 0.93859-4.8367 0.98757-4.6538 1.4991 5.5981 0.57809 11.585 2.0774 15.525 4.6287 12.163 1.5771-2.078 1.7568-1.3292 0.48418 2.0179-0.80142 2.1079-0.2994 2.9982 4.0143 7.1194 8.5465 8.165 13.54 8.9469 15.797 2.4735 1.94-5.565 1.237-12.297-2.512-24.04-4.137-12.962-5.385-26.428-3.543-38.24 1.7907-11.487 2.8261-9.5492 2.7405 5.128-0.06359 10.904 0.29969 14.87 1.7402 19.001 1.8124 5.197 6.8227 10.726 9.0553 9.9931 0.61826-0.20301 3.4721-7.0322 6.3419-15.176 2.8698-8.1437 5.5198-15.084 5.8889-15.422 0.62309-0.5715 0.4362 1.8891-1.2444 16.385-0.35087 3.0262-0.23842 5.4731 0.25 5.4402 0.48822-0.03288 2.9127-2.4686 5.3877-5.4128 2.475-2.9441 4.645-5.2098 4.8222-5.0347 0.50892 0.50277-4.6694 8.4423-9.7879 15.007-5.4009 6.9271-6.5471 9.5623-8.0462 18.5-0.59964 3.575-2.1883 10.596-3.5303 15.602-2.0994 7.8318-2.3187 10.069-1.5707 16.025 0.4781 3.8076 2.1616 10.025 3.7411 13.816 2.356 5.6552 3.4108 7.0696 5.8718 7.874 1.65 0.5393 4.0732 1.8134 5.3849 2.8312 3.0543 2.3701 5.2715 2.3356 9.341-0.14559 1.8008-1.098 3.9492-2.0048 4.7742-2.0153 4.1219-0.0524 4.2635-1.2608 1.5602-13.314-2.794-12.438-4.594-33.658-2.857-33.658 0.55496 0 1.3054 3.5543 1.6677 7.8984 0.80917 9.7027 4.0378 22.774 6.4225 26.002 0.97528 1.3201 2.7149 3.0255 3.8659 3.7897 1.8666 1.2394 2.4037 1.1278 4.9711-1.0326 4.3012-3.6192 11.54-18.377 12.155-24.782 0.40757-4.2417 0.67544-4.8602 1.334-3.08 1.033 2.7926-0.25234 9.7235-3.4236 18.46-1.6578 4.5671-2.0596 6.7446-1.2447 6.7446 3.3427 0 25.771-10.507 31.308-14.667 6.5074-4.8894 9.6923-15.816 9.0952-31.203-0.33239-8.5647 0.46559-11.957 1.6185-6.8803 2.0736 9.1308 2.4811 11.981 2.5027 17.5 0.0135 3.4375 0.39914 6.25 0.85709 6.25 1.2228 0 6.75-7.1376 9.2677-11.968 1.8074-3.4675 2.4108-7.3148 3.5074-22.36 0.72845-9.9946 1.4522-20.872 1.6084-24.172 0.24803-5.242 0.43594-5.735 1.4875-3.9024 1.9061 3.3218 3.2806 13.991 3.2888 25.527 0.0124 17.474 1.1821 19.505 8.621 14.969 5.312-3.2392 7.2696-8.9579 8.448-24.679 1.5952-21.283 1.8981-23.229 3.2479-20.875 0.66539 1.1604 1.2876 9.0842 1.5253 19.423l0.40145 17.463 2.3819-2.7691c1.323-1.5381 2.3819-4.0561 2.3819-5.6642 0-1.5923 0.51125-5.2789 1.1361-8.1925 1.0466-4.8803 1.2116-5.1007 2.095-2.7992 1.1754 3.0622 0.38594 16.977-1.1232 19.797-0.60425 1.1291-5.9382 6.2187-11.853 11.31-5.915 5.0917-14.355 12.698-18.755 16.903-14.299 13.665-32.348 26.556-43.999 31.423l-3.4444 1.4392 2.2066 4.8129c3.2754 7.144 3.1816 19.58-0.18483 24.493-1.3318 1.9436-3.7229 4.3856-5.3136 5.4267s-4.255 3.8893-5.9206 6.3293c-2.7862 4.0816-2.9733 4.8813-2.3396 10 1.1166 9.0198 6.1924 27.821 9.2958 34.432 1.583 3.3722 5.0922 9.0563 7.7984 12.631 12.104 15.99 16.274 36.328 11.399 55.59-2.8504 11.262-7.059 18.911-15.401 27.991-8.3408 9.0789-9.0968 10.302-10.097 16.334-1.9832 11.963-8.6711 25.998-13.911 29.193-3.8178 2.3281-3.7627 2.3289-6.8585-0.10625zm15.088-216.01c3.4741-3.8447 5.9491-6.9812 5.5-6.9701-0.44905 0.0111-4.4165 2.2085-8.8165 4.883-5.3622 3.2593-8.1054 5.5608-8.3196 6.9798-0.26155 1.7328 0.19223 2.1153 2.5 2.1073 2.2157-0.008 4.1723-1.5068 9.136-7zm-64.384-23.132c-2.16-4.791-13.435-14.294-13.435-11.324 0 1.7352 5.2575 10.375 7.6568 12.583 6.5504 6.0273 8.8395 5.5283 5.7786-1.2595zm510.06 137.75c-13.807-2.6674-22.56-9.2568-25.982-19.56-2.3769-7.1563-1.7476-19.841 1.2749-25.697 4.4636-8.648 14.12-14.233 28.48-16.474 6.8044-1.0617 21.602-0.63617 25.144 0.72299 1.2764 0.4898 1.5833-0.14306 1.5833-3.265 0-5.711-2.9201-10.468-8.0359-13.091-5.4116-2.7749-16.572-3.0412-28.961-0.69104-4.52 0.85743-8.3238 1.4199-8.453 1.25-0.79594-1.0471-3.3481-20.406-2.7646-20.97 1.1635-1.125 16.264-3.6963 25.834-4.3991 18.078-1.3277 33.411 3.1039 40.863 11.811 2.0634 2.4106 4.4607 6.9228 5.6891 10.708 1.952 6.015 2.1604 9.3327 2.5879 41.198l0.46497 34.656-5.362 1.055c-13.564 2.6687-18.277 3.2161-31.362 3.6429-9.4318 0.3076-16.284 0.0153-21-0.89577zm30.283-31.739c0.27467-10.328 0.21877-10.642-2-11.236-3.5659-0.95529-15.93-0.74357-19.699 0.33732-7.078 2.03-10.285 7.8524-8.052 14.619 1.8502 5.6062 6.8966 7.4598 19.469 7.151l10-0.24561 0.28256-10.625zm-303.78-33.875v-65h14.5 14.5v24c0 13.2 0.17471 24 0.38825 24 0.68451 0 14.898-15.021 30.043-31.75l14.711-16.25h17.051c16.087 0 16.975 0.09896 15.701 1.75-5.0933 6.6005-23.914 27.282-37.317 41.006l-15.923 16.304 11.305 11.209c6.2175 6.1652 15.103 15.939 19.745 21.72 7.655 9.5326 26.296 36.079 26.296 37.448 0 0.30962-7.6363 0.56295-16.97 0.56295h-16.97l-5.003-7.4141c-8.3681-12.401-20.921-27.563-31.325-37.836-5.4308-5.3625-10.293-9.75-10.804-9.75-0.55024 0-0.92958 11.222-0.92958 27.5v27.5h-14.5-14.5v-65zm134.24-5.6892 0.25671-70.689 11-1.7456c6.05-0.9601 12.238-1.9887 13.75-2.2858l2.75-0.54012v23.805 23.805l6.75-1.4209c4.4672-0.94038 9.3819-1.2122 14.532-0.80362 14.133 1.1211 24.409 6.5929 29.665 15.797 5.396 9.4481 6.0526 15.058 6.0526 51.716v33.053h-13.415-13.415l-0.42721-31.75c-0.26973-20.046-0.85156-33.061-1.5784-35.307-0.63316-1.9563-2.5119-4.8604-4.1749-6.4537-2.5324-2.4262-4.0388-2.9615-9.2722-3.2947-3.4367-0.21883-8.1539 0.11518-10.483 0.74226l-4.2341 1.1401v37.461 37.461h-14.007-14.007l0.25671-70.689zm229 0 0.25671-70.689 11-1.7456c6.05-0.9601 12.238-1.9887 13.75-2.2858l2.75-0.54012v41.178 41.178l4.0593-3.953c2.2326-2.1741 9.3201-10.135 15.75-17.69l11.691-13.737 16.405-0.0128c15.513-0.0121 16.326 0.0823 14.948 1.7372-5.601 6.7286-25.86 28.897-31.273 34.221-3.6189 3.5591-6.5798 6.9529-6.5798 7.5418 0 0.58888 2.0629 3.0769 4.5842 5.5289 9.1267 8.876 22.721 26.823 31.214 41.208l5.1658 8.75h-15.924-15.924l-7.5638-11.455c-8.2926-12.558-20.307-27.5-24.122-30l-2.4297-1.5921v21.523 21.523h-14.007-14.007l0.25671-70.689zm115.76 21.189v-49.5h14 14v49.5 49.5h-14-14v-49.5zm8.8188-62.481c-7.2346-2.1833-10.803-7.2663-10.812-15.401-0.0109-9.7161 4.9028-15.138 14.723-16.246 9.7338-1.0981 17.699 6.1597 17.699 16.128 0 6.6078-2.6972 11.188-8.3488 14.176-4.4905 2.3746-8.4973 2.7803-13.261 1.3427z" />
 <path id="path3625" fill="#000" d="m91.839 328.36c-0.87018-0.9625-4.7667-8.725-8.659-17.25-7.6088-16.665-14.328-28.369-22.678-39.5-9.1559-12.205-11.817-21.223-11.802-40 0.0094-12.363 1.2463-19.611 4.6661-27.342 3.6571-8.2674-0.49441-11.471-11.921-9.2002-8.145 1.619-10.907 0.88152-15.957-4.2597-2.2679-2.3092-4.8036-4.7303-5.6348-5.3803-1.1164-0.87299-1.3745-2.396-0.98772-5.8277 0.48107-4.2681 1.3052-5.4427 10.135-14.446 10.162-10.361 12.801-15.101 11.018-19.789-0.49884-1.3121-0.90699-3.7063-0.90699-5.3205 0-1.8716-0.51556-2.9349-1.4231-2.9349-2.2714 0-6.7738-5.1049-13.822-15.672-3.6057-5.4056-7.7256-10.919-9.1553-12.253-7.0842-6.6068 0.48252-8.2658 11.901-2.6091 8.3139 4.1188 24.762 10.605 25.364 10.002 0.23342-0.23342-0.34779-2.4463-1.2916-4.9175-1.2751-3.3388-3.3546-5.7971-8.0946-9.5688-3.5083-2.7916-7.5852-6.5095-9.0598-8.262-2.7057-3.2155-9.4184-16.911-9.4184-19.215 0-0.68469-0.9-4.0621-2-7.5054-2.0626-6.4566-2.6155-19.85-1.032-25 0.49417-1.6074 0.78456 0.65373 0.81331 6.3328 0.04093 8.085 1.4501 14.667 3.14 14.667 0.37327 0 1.2738-0.5625 2.0011-1.25 1.0946-1.0347 1.1061-0.83084 0.06688 1.183-1.101 2.1335-0.99297 2.6456 0.87759 4.1603 1.1732 0.95001 2.1331 2.133 2.1331 2.6289 0 1.6716 10.347 8.2778 12.965 8.2778 0.5854 0 1.9561-1.4625 3.0459-3.25 3.0387-4.9839 2.6611-13.697-1.0818-24.963-4.4868-13.505-5.5431-22.385-4.2016-35.321 0.61055-5.887 1.4841-11.078 1.9412-11.536 0.45714-0.45751 0.83116 5.5585 0.83116 13.369 0 9.3992 0.45844 15.498 1.3559 18.036 1.5703 4.4425 6.6947 10.664 8.7833 10.664 1.6491 0 3.7498-4.5989 8.2221-18 3.197-9.5798 5.8301-15.08 4.7874-10-1.2644 6.1601-1.8603 19-0.88181 19 0.56378 0 2.9045-2.1375 5.2016-4.75 3.5621-4.0511 3.9084-4.2604 2.3541-1.4226-1.0024 1.8301-4.1952 6.3107-7.0952 9.9569-4.8302 6.0732-8.2273 13.62-8.2273 18.277 0 0.93389-1.3971 7.2493-3.1047 14.034-3.6831 14.634-3.4717 19.749 1.3224 31.997 2.8985 7.405 3.3386 7.9802 6.8238 8.9187 2.049 0.55174 4.283 1.6749 4.9644 2.496 1.6265 1.9598 5.4461 1.8979 8.5543-0.1386 1.3694-0.89728 3.9411-1.9333 5.7148-2.3023 3.9272-0.81692 3.9981-2.0206 0.97571-16.566-2.6008-12.517-3.876-27.5-2.3405-27.5 0.59937 0 1.0957 1.6875 1.1029 3.75 0.02318 6.6169 3.7664 22.198 6.4212 26.728 2.6279 4.4842 5.0711 6.0325 7.8416 4.9694 3.5744-1.3716 12.643-18.498 13.739-25.945l0.73586-5.0024 0.11138 5c0.0713 3.1994-0.94884 8.0462-2.8328 13.459-1.6193 4.6525-2.806 8.5973-2.6373 8.766 0.53743 0.53742 21.196-8.2938 26.035-11.129 8.6311-5.0581 11.404-8.2284 13.642-15.594 1.6695-5.4965 2.001-8.8937 1.7464-17.895-0.17291-6.1109-0.0142-11.11 0.35277-11.109 1.0963 0.0033 2.9647 9.919 3.5722 18.958l0.56827 8.4555 3.8225-4.3075c7.1363-8.0416 8.5644-12.585 9.7835-31.123 0.5975-9.0858 1.0864-19.575 1.0864-23.309 0-3.766 0.40056-6.5419 0.89952-6.2335 1.8884 1.1671 3.4433 11.659 4.0109 27.062l0.58957 16 3.7951-0.11806c2.4393-0.07588 4.652-0.92306 6.1937-2.3714 5.0122-4.7087 5.8738-8.7137 8.0695-37.511 1.053-13.81 2.648-7.472 3.2083 12.75 0.25529 9.2125 0.83671 16.75 1.2921 16.75 1.6512 0 3.9435-4.5267 4.0373-7.9725 0.0528-1.9401 0.63693-5.7775 1.2981-8.5275l1.2021-5 0.71002 5.0514c0.84004 5.9764-0.0373 13.857-1.9698 17.694-0.76042 1.5098-3.7347 4.6002-6.6095 6.8676s-11.752 10.122-19.727 17.455c-16.429 15.105-23.226 20.575-33.396 26.871-5.4611 3.3809-15.967 8.8826-17.266 9.042-0.0894 0.011 0.91148 3.17 2.2242 7.02 4.2856 12.569 2.9751 19.257-5.416 27.64-10.587 10.577-10.14 9.5715-8.493 19.074 3.6847 21.26 7.9643 33.017 15.735 43.227 6.4064 8.4182 8.6669 12.733 11.556 22.059 6.788 21.911 1.4982 45.686-13.749 61.795-8.409 8.8842-8.879 9.7346-11.718 21.201-4.9255 19.891-14.653 31.497-20.748 24.755zm11.771-210.05c0.55-0.8866 3.25-4.0714 6-7.0773 5.5122-6.0252 4.6543-6.0545-5.397-0.18426-8.7332 5.1005-10.208 6.7792-7.6178 8.6731 2.1999 1.6086 5.5607 0.93238 7.0147-1.4115zm-57.5-22.733c0-1.6422-3.4104-8.2795-5.2977-10.31-3.3555-3.6109-10.702-8.4307-10.702-7.0212 0 2.9645 4.5346 10.164 8.7245 13.853 4.0022 3.5229 7.2755 5.0882 7.2755 3.4791zm510.82 132.48c-20.297-2.8002-30.82-13.366-30.82-30.946 0-15.996 8.5613-25.885 26-30.032 6.2039-1.4754 22.509-1.8349 28.384-0.62589l3.884 0.79926-0.49437-5.1449c-0.57393-5.973-3.0136-9.781-7.8447-12.244-4.3616-2.224-19.432-2.3516-29.36-0.24854-3.8121 0.80755-7.1871 1.2161-7.5 0.90789-0.31294-0.30822-1.3028-4.9143-2.1997-10.236-1.1499-6.8223-1.3119-9.8766-0.54945-10.358 2.8461-1.7976 20.247-4.0951 31.18-4.1168 24.383-0.0484 37.027 7.682 41.14 25.152 0.96568 4.1028 1.3335 14.859 1.3449 39.327l0.0156 33.679-5.25 1.0505c-16.072 3.2159-37.015 4.5431-47.93 3.0373zm27.18-31.839c0-9.0105-0.27336-10.998-1.5818-11.5-3.3516-1.2862-18.383-0.60482-22.436 1.017-8.8994 3.5608-9.4811 15.355-0.96791 19.624 2.6709 1.3396 5.9999 1.7488 14.236 1.75l10.75 0.002v-10.893zm-304-34.107v-65h14.5 14.5v24c0 13.2 0.37625 24 0.8361 24 0.45986 0 9.1224-9.1028 19.25-20.229s19.989-21.942 21.914-24.036l3.5-3.8074 16.763 0.28598 16.763 0.28598-13.729 15.5c-7.5509 8.525-19.862 21.766-27.358 29.424l-13.629 13.924 9.9822 9.5762c5.4902 5.2669 13.514 13.805 17.83 18.974 8.0013 9.5809 22.957 30.18 27.483 37.852l2.5068 4.25h-16.915-16.915l-3.7975-5.75c-8.317-12.593-19.536-26.322-30.645-37.5-6.4225-6.4625-12.164-11.75-12.759-11.75-0.74929 0-1.0816 8.4497-1.0816 27.5v27.5h-14.5-14.5v-65zm135-5.481v-70.481l2.25-0.5092c1.2375-0.28006 7.3125-1.3451 13.5-2.3668l11.25-1.8576v23.955c0 21.255 0.17518 23.888 1.5544 23.358 8.2546-3.1676 26.386-2.5069 34.93 1.2728 6.1718 2.7301 13.059 9.4408 15.873 15.467 3.9288 8.4121 4.642 16.09 4.642 49.975v31.668h-13.426-13.426l-0.32353-32.25c-0.30676-30.579-0.4356-32.492-2.4859-36.929-3.063-6.6279-6.4603-8.1703-16.8-7.6276-4.4618 0.23418-8.658 0.76304-9.3249 1.1752-0.91522 0.56564-1.2126 9.9318-1.2126 38.19v37.441h-13.5-13.5v-70.481zm229 0v-70.481l2.25-0.5092c1.2375-0.28006 7.3125-1.3451 13.5-2.3668l11.25-1.8576 0.002 41.598 0.002 41.598 5.4273-6c2.985-3.3 10.072-11.478 15.748-18.173l10.321-12.173 16.437-0.0769 16.437-0.0769-2.4816 2.75c-1.3648 1.5125-6.4995 7.25-11.41 12.75-4.9108 5.5-12.875 14.074-17.698 19.054l-8.7692 9.0544 4.0988 3.9456c4.9248 4.7407 17.751 20.445 24.049 29.446 4.8976 6.9999 12.837 20.178 12.837 21.308 0 0.38051-6.93 0.69183-15.4 0.69183h-15.4l-5.1904-8.1753c-9.6116-15.139-25.506-34.825-28.118-34.825-0.49538 0-0.89229 9.5636-0.89229 21.5v21.5h-13.5-13.5v-70.481zm116 20.981v-49.5h13.5 13.5v49.5 49.5h-13.5-13.5v-49.5zm7.5779-62.985c-2.1572-0.76859-5.3072-2.7825-7-4.4753-2.8942-2.8942-3.0779-3.529-3.0779-10.636 0-7.4262 0.0638-7.6161 3.6696-10.921 7.3059-6.6953 17.392-6.6264 23.973 0.1639 3.1943 3.2957 3.3573 3.8226 3.3573 10.853 0 7.0302-0.16301 7.5571-3.3573 10.853-2.0616 2.127-5.0306 3.8852-7.6928 4.5555-5.2599 1.3245-5.0238 1.3339-9.872-0.39352z"/>
</svg>
